<svg xmlns="http://www.w3.org/2000/svg" width="16" height="16" fill="none" viewBox="0 0 16 16"><path fill="#fff" d="M15 0H2V16H9.707L15 10.707V0Z" opacity=".5"/><path fill="#fff" d="M14.0001 1V10.293L9.293 15H3L3.00006 1H14.0001Z"/><path fill="#000" d="M15 10.707V0H2V16H9.707L15 10.707ZM10 11H13.293L10 14.293V11ZM14 1V10H9V15H3V1H14Z" opacity=".2"/><path fill="#FAA700" d="M14 1V2H3V1H14ZM15 0H2V3H15V0Z"/><path fill="#FAA700" d="M14 1H3V2H14V1Z" opacity=".4"/><path fill="#FAA700" d="M12 5H5V6H12V5Z"/><path fill="#FAA700" d="M12 8H5V9H12V8Z"/><path fill="#FAA700" d="M8 11H5V12H8V11Z"/><path fill="#000" d="M10 11V14.293L13.293 11H10Z" opacity=".08"/></svg>