<svg width="20" height="20" viewBox="0 0 20 20" fill="none" xmlns="http://www.w3.org/2000/svg">
<g clip-path="url(#clip0_1132_37397)">
<path fill-rule="evenodd" clip-rule="evenodd" d="M15.2993 3.45132C9.70796 0.401476 5.6195 0.767603 3.51167 2.73007C2.06694 4.07517 1.70037 6.04539 2.40922 7.78528C1.9673 8.3293 1.6187 8.97119 1.40141 9.69542C0.6682 12.1393 1.45832 15.336 4.7659 18.773L5.21574 17.4235C2.50064 14.3978 2.0703 11.8158 2.59868 10.0546C2.71734 9.65915 2.88566 9.29662 3.09316 8.97053C3.37618 9.33844 3.71725 9.68296 4.11634 9.99337C6.54681 11.8837 8.86308 11.4966 9.88566 10.048C10.3762 9.35303 10.5148 8.44381 10.1287 7.61814C9.74229 6.79153 8.88965 6.16857 7.63567 5.8899C6.16757 5.56366 4.62141 5.93344 3.40711 6.83169C3.12285 5.67493 3.46864 4.47804 4.36344 3.64494C5.88061 2.2324 9.29215 1.59853 14.7008 4.54869L15.2993 3.45132ZM7.02724 19.9673L6.28793 20.2138C6.38929 20.3018 6.49234 20.3899 6.59709 20.4781L7.02724 19.9673ZM4.88377 9.00668C4.49328 8.70297 4.17813 8.36467 3.93536 8.00651C4.89976 7.1921 6.18125 6.84719 7.36451 7.11014C8.36051 7.33147 8.82035 7.77101 8.99638 8.14754C9.17285 8.52499 9.12392 8.95952 8.86445 9.3271C8.38703 10.0034 6.9533 10.6163 4.88377 9.00668ZM15.6162 6.50001C16.1043 6.01185 16.8958 6.01185 17.3839 6.50001L18.5 7.61612C18.9882 8.10428 18.9882 8.89574 18.5 9.38389L10.5463 17.3376C10.4091 17.4748 10.2418 17.5782 10.0577 17.6396L7.19768 18.5929L6.01183 18.9882L6.40711 17.8024L7.36046 14.9423C7.42182 14.7582 7.52521 14.591 7.66243 14.4537L15.6162 6.50001ZM14.5 9.38389L8.54631 15.3376L7.98825 17.0118L9.66243 16.4537L15.6162 10.5L14.5 9.38389ZM15.3839 8.50001L16.5 9.61612L17.6162 8.50001L16.5 7.38389L15.3839 8.50001Z" fill="currentColor"/>
</g>
<defs>
<clipPath id="clip0_1132_37397">
<rect width="20" height="20" fill="white"/>
</clipPath>
</defs>
</svg>
