<svg width="20" height="20" viewBox="0 0 20 20" fill="none" xmlns="http://www.w3.org/2000/svg">
<path d="M12 1.75H8V3H12V1.75Z" fill="currentColor"/>
<path fill-rule="evenodd" clip-rule="evenodd" d="M4 4V16H16V4H4ZM14.75 5.25H5.25V14.75H14.75V5.25Z" fill="currentColor"/>
<path d="M17 14H18.25V18.25H14V17H17V14Z" fill="currentColor"/>
<path d="M18.25 8H17V12H18.25V8Z" fill="currentColor"/>
<path d="M1.75 8H3V12H1.75V8Z" fill="currentColor"/>
<path d="M8 17H12V18.25H8V17Z" fill="currentColor"/>
<path d="M14 3H17V6H18.25V1.75H14V3Z" fill="currentColor"/>
<path d="M3 3V6H1.75L1.75 1.75H6V3H3Z" fill="currentColor"/>
<path d="M6 17H3L3 14L1.75 14V18.25H6V17Z" fill="currentColor"/>
</svg>
