<svg width="20" height="20" viewBox="0 0 20 20" fill="none" xmlns="http://www.w3.org/2000/svg">
<path fill-rule="evenodd" clip-rule="evenodd" d="M13.3838 1.5C12.8956 1.01184 12.1042 1.01184 11.616 1.5L1.49991 11.6161C1.01175 12.1043 1.01175 12.8957 1.49991 13.3839L6.61602 18.5C7.10418 18.9882 7.89564 18.9881 8.38379 18.5L18.4999 8.38388C18.9881 7.89573 18.9881 7.10427 18.4999 6.61611L13.3838 1.5ZM5.88385 8.99994L12.4999 2.38388L17.616 7.5L11 14.1161L5.88385 8.99994ZM4.99997 9.88382L2.38379 12.5L7.49991 17.6161L10.1161 14.9999L4.99997 9.88382ZM9.65171 19H19.0001V17.75H10.9017L9.65171 19ZM11.558 5.44194L14.558 8.44194L15.4418 7.55806L12.4418 4.55806L11.558 5.44194Z" fill="currentColor"/>
</svg>
