<svg width="20" height="20" viewBox="0 0 20 20" fill="none" xmlns="http://www.w3.org/2000/svg">
<path fill-rule="evenodd" clip-rule="evenodd" d="M17.75 4.25H2.25L2.25 15.75H17.75V4.25ZM2.25 3C1.55964 3 1 3.55964 1 4.25V15.75C1 16.4404 1.55964 17 2.25 17H17.75C18.4404 17 19 16.4404 19 15.75V4.25C19 3.55964 18.4404 3 17.75 3H2.25ZM5.50898 10.625L7.00009 12.1161L6.11621 13L3.11621 10L6.11621 7L7.00009 7.88388L5.50898 9.375H9V10.625H5.50898ZM11 10.625H14.4911L13 12.1161L13.8839 13L16.8839 10L13.8839 7L13 7.88388L14.4911 9.375H11V10.625Z" fill="currentColor"/>
</svg>
