<svg width="20" height="20" viewBox="0 0 20 20" fill="none" xmlns="http://www.w3.org/2000/svg">
<g clip-path="url(#clip0_468_18264)">
<path fill-rule="evenodd" clip-rule="evenodd" d="M12 16L7 4H5L0 16H2.16667L3.41667 13H8.58333L9.83333 16H12ZM7.95833 11.5L6 6.8L4.04167 11.5H7.95833ZM18.0001 14.6493C17.3649 15.4828 16.4795 16 15.5001 16C13.5671 16 12.0001 13.9853 12.0001 11.5C12.0001 9.01472 13.5671 7 15.5001 7C16.4795 7 17.3649 7.51716 18.0001 8.35066V7H20.0001V16H18.0001V14.6493ZM18.0001 11.5C18.0001 13.1569 17.1047 14.5 16.0001 14.5C14.8955 14.5 14.0001 13.1569 14.0001 11.5C14.0001 9.84315 14.8955 8.5 16.0001 8.5C17.1047 8.5 18.0001 9.84315 18.0001 11.5Z" fill="currentColor"/>
</g>
<defs>
<clipPath id="clip0_468_18264">
<rect width="20" height="20" fill="white"/>
</clipPath>
</defs>
</svg>
