<svg width="20" height="20" viewBox="0 0 20 20" fill="none" xmlns="http://www.w3.org/2000/svg">
<path fill-rule="evenodd" clip-rule="evenodd" d="M10.75 1H11.375H14.625H14.8839L15.0669 1.18306L16.8169 2.93306L17 3.11612V3.375V8.625V9.25H16.375H11.375H10.75V8.625V1.625V1ZM12 2.25V8H15.75V3.63388L14.3661 2.25H12ZM3.625 10.75H3V11.375V18.375V19H3.625H8.625H9.25V18.375V13.125V12.8661L9.06694 12.6831L7.31694 10.9331L7.13388 10.75H6.875H3.625ZM4.25 17.75V12H6.61612L8 13.3839V17.75H4.25ZM11.375 10.75H10.75V11.375V18.375V19H11.375H16.375H17V18.375V13.125V12.8661L16.8169 12.6831L15.0669 10.9331L14.8839 10.75H14.625H11.375ZM12 17.75V12H14.3661L15.75 13.3839V17.75H12ZM3.625 1H3V1.625V8.625V9.25H3.625H8.625H9.25V8.625V3.375V3.11612L9.06694 2.93306L7.31694 1.18306L7.13388 1H6.875H3.625ZM4.25 8V2.25H6.61612L8 3.63388V8H4.25Z" fill="currentColor"/>
</svg>
