<svg width="20" height="20" viewBox="0 0 20 20" fill="none" xmlns="http://www.w3.org/2000/svg">
<path fill-rule="evenodd" clip-rule="evenodd" d="M7.5 12.75C10.3995 12.75 12.75 10.3995 12.75 7.5C12.75 4.60051 10.3995 2.25 7.5 2.25C4.60051 2.25 2.25 4.60051 2.25 7.5C2.25 10.3995 4.60051 12.75 7.5 12.75ZM12.517 11.6331C13.4435 10.5097 14 9.06984 14 7.5C14 3.91015 11.0899 1 7.5 1C3.91015 1 1 3.91015 1 7.5C1 11.0899 3.91015 14 7.5 14C9.06987 14 10.5098 13.4435 11.6331 12.5169L18.1162 19L19 18.1161L12.517 11.6331ZM6.875 6.875V4H8.125V6.875H11V8.125H8.125V11H6.875V8.125H4V6.875H6.875Z" fill="currentColor"/>
</svg>
