<svg xmlns="http://www.w3.org/2000/svg" width="28" height="28" fill="none" viewBox="0 0 28 28"><g clip-path="url(#clip0_144_2136)"><path fill="#fff" d="M20.717 0H5V28H28V7.283L20.717 0Z" opacity=".5"/><path fill="#fff" d="M6 1V27H27V7.698L20.302 1H6Z"/><path fill="#000" d="M21 1.698V7H26.302L21 1.698Z" opacity=".08"/><path fill="#000" d="M20.717 0H5V28H28V7.283L20.717 0ZM21 1.7L26.3 7H21V1.7ZM27 27H6V1H20V8H27V27Z" opacity=".2"/><path fill="#F1ABB0" d="M15 6H1V11H15V6Z"/><path fill="#DB2C3A" d="M15 6V11H1V6H15ZM16 5H0V12H16V5Z"/></g><defs><clipPath id="clip0_144_2136"><rect width="28" height="28" fill="#fff"/></clipPath></defs></svg>