<svg xmlns="http://www.w3.org/2000/svg" width="28" height="28" fill="none" viewBox="0 0 28 28"><path fill="#fff" d="M18.717 28L26 20.717V0H3V28H18.717Z" opacity=".5"/><path fill="#fff" d="M4 27V1H25V20.302L18.302 27H4Z"/><path fill="#000" d="M19 26.302V21H24.302L19 26.302Z" opacity=".08"/><path fill="#000" d="M26 20.717V0H3V28H18.717L26 20.717ZM19 21H24.3L19 26.3V21ZM25 20H18V27H4V1H25V20Z" opacity=".2"/><path fill="#FAA700" d="M25 1V4H4V1H25ZM26 0H3V5H26V0Z"/><path fill="#FAA700" d="M25 1H4V4H25V1Z" opacity=".4"/></svg>